<svg width="40" height="40" viewBox="0 0 40 40" fill="none" xmlns="http://www.w3.org/2000/svg">
<g id="mdi:hand-coin-outline">
<path id="Vector" d="M27.0336 25.422V25.122C27.0336 23.6038 26.107 22.2424 24.7331 21.7144L27.0336 25.422ZM27.0336 25.422H27.3336H30.0002C32.0411 25.422 33.7002 27.111 33.7002 29.2195V30.3664L23.3284 33.6867L14.0822 31.0616L13.7002 30.9532V31.3502V33.0171H6.30024V18.5927H16.5715L24.7327 21.7142L27.0336 25.422ZM11.3336 30.8854H11.6336V30.5854V21.0244V20.7244H11.3336H8.66691H8.36691V21.0244V30.5854V30.8854H8.66691H11.3336ZM23.2125 31.4342L23.2989 31.4585L23.3845 31.4313L31.2911 28.9181L31.6183 28.8141L31.4714 28.5039C31.2129 27.9577 30.6463 27.5537 30.0002 27.5537H22.8669C22.1776 27.5537 21.5038 27.4491 20.8572 27.2283L20.8568 27.2282L17.9634 26.2443L18.6186 24.2201L21.5033 25.201C21.5033 25.201 21.5034 25.201 21.5034 25.201C21.5842 25.2286 21.696 25.2475 21.8069 25.2624C21.9251 25.2783 22.0676 25.2927 22.2232 25.3057C22.5347 25.3317 22.9096 25.3533 23.2693 25.3704C23.6295 25.3876 23.9769 25.4004 24.234 25.409C24.3626 25.4133 24.4688 25.4165 24.5429 25.4186L24.6287 25.421L24.6513 25.4216L24.6572 25.4218L24.6587 25.4218L24.6591 25.4219L24.6592 25.4219L24.6669 25.122L24.6592 25.4219L24.9669 25.4297V25.122C24.9669 24.4961 24.5874 23.9326 24.0163 23.7089L24.014 23.708L16.254 20.7441L16.2023 20.7244H16.1469H14.0002H13.7002V21.0244V28.5366V28.764L13.9192 28.8254L23.2125 31.4342ZM19.6336 12.8293C19.6336 9.21834 22.4927 6.3 26.0002 6.3C29.5078 6.3 32.3669 9.21834 32.3669 12.8293C32.3669 16.4402 29.5078 19.3585 26.0002 19.3585C22.4927 19.3585 19.6336 16.4402 19.6336 12.8293ZM21.7002 12.8293C21.7002 15.2554 23.6145 17.2268 26.0002 17.2268C28.386 17.2268 30.3002 15.2554 30.3002 12.8293C30.3002 10.4031 28.386 8.43171 26.0002 8.43171C23.6145 8.43171 21.7002 10.4031 21.7002 12.8293Z" fill="#969696" stroke="white" stroke-width="0.6"/>
</g>
</svg>
