<svg width="24" height="24" viewBox="0 0 24 24" fill="none" xmlns="http://www.w3.org/2000/svg">
<g id="Icon_Location">
<path id="Vector" d="M14.25 10C14.25 9.40326 14.0129 8.83097 13.591 8.40901C13.169 7.98705 12.5967 7.75 12 7.75C11.4033 7.75 10.831 7.98705 10.409 8.40901C9.98705 8.83097 9.75 9.40326 9.75 10C9.75 10.5967 9.98705 11.169 10.409 11.591C10.831 12.0129 11.4033 12.25 12 12.25C12.5967 12.25 13.169 12.0129 13.591 11.591C14.0129 11.169 14.25 10.5967 14.25 10ZM21 10C21 14.311 16.3545 19.024 13.7385 21.337C13.2602 21.7642 12.6413 22.0003 12 22.0003C11.3587 22.0003 10.7398 21.7642 10.2615 21.337C7.6455 19.024 3 14.311 3 10C3 8.8181 3.23279 7.64778 3.68508 6.55585C4.13738 5.46392 4.80031 4.47177 5.63604 3.63604C6.47177 2.80031 7.46392 2.13738 8.55585 1.68508C9.64778 1.23279 10.8181 1 12 1C13.1819 1 14.3522 1.23279 15.4442 1.68508C16.5361 2.13738 17.5282 2.80031 18.364 3.63604C19.1997 4.47177 19.8626 5.46392 20.3149 6.55585C20.7672 7.64778 21 8.8181 21 10ZM19.5 10C19.5 8.01088 18.7098 6.10322 17.3033 4.6967C15.8968 3.29018 13.9891 2.5 12 2.5C10.0109 2.5 8.10322 3.29018 6.6967 4.6967C5.29018 6.10322 4.5 8.01088 4.5 10C4.5 11.662 5.4225 13.5925 6.855 15.5245C8.256 17.4115 9.9855 19.09 11.2545 20.2135C11.4587 20.3986 11.7244 20.5011 12 20.5011C12.2756 20.5011 12.5413 20.3986 12.7455 20.2135C14.0145 19.09 15.7455 17.413 17.145 15.5245C18.5775 13.5925 19.5 11.662 19.5 10Z" fill="#969696"/>
</g>
</svg>
