<svg width="24" height="24" viewBox="0 0 24 24" fill="none" xmlns="http://www.w3.org/2000/svg">
<g id="Icon_Share" clip-path="url(#clip0_739_1420)">
<path id="Vector" d="M18.3534 16C17.9044 16.0017 17.4603 16.0941 17.0479 16.2717C16.6355 16.4492 16.2632 16.7083 15.9534 17.0333L7.82671 12.9666C8.02662 12.3605 8.02662 11.7061 7.82671 11.1L15.9667 6.95998C16.5498 7.5744 17.3404 7.95008 18.185 8.01402C19.0297 8.07795 19.8679 7.82556 20.5368 7.30591C21.2057 6.78625 21.6574 6.03646 21.8043 5.20226C21.9512 4.36806 21.7826 3.50906 21.3314 2.7922C20.8802 2.07535 20.1786 1.55186 19.363 1.32349C18.5473 1.09512 17.6759 1.17818 16.918 1.55652C16.1602 1.93487 15.5701 2.58147 15.2625 3.37065C14.9548 4.15983 14.9516 5.03521 15.2534 5.82665L7.19338 9.92665C6.75808 9.39428 6.16878 9.00957 5.50626 8.82526C4.84373 8.64096 4.14042 8.66607 3.49273 8.89716C2.84505 9.12825 2.28468 9.554 1.88846 10.1161C1.49223 10.6781 1.27954 11.349 1.27954 12.0366C1.27954 12.7243 1.49223 13.3952 1.88846 13.9572C2.28468 14.5193 2.84505 14.945 3.49273 15.1761C4.14042 15.4072 4.84373 15.4323 5.50626 15.248C6.16878 15.0637 6.75808 14.679 7.19338 14.1466L15.2334 18.1933C15.0975 18.5581 15.0276 18.9441 15.0267 19.3333C15.0267 19.9926 15.2222 20.6371 15.5885 21.1852C15.9548 21.7334 16.4753 22.1606 17.0844 22.4129C17.6935 22.6652 18.3637 22.7312 19.0103 22.6026C19.657 22.474 20.2509 22.1565 20.7171 21.6903C21.1832 21.2242 21.5007 20.6302 21.6293 19.9836C21.7579 19.337 21.6919 18.6668 21.4396 18.0577C21.1874 17.4486 20.7601 16.928 20.2119 16.5617C19.6638 16.1955 19.0193 16 18.36 16H18.3534ZM18.3534 2.66665C18.7489 2.66665 19.1356 2.78394 19.4645 3.00371C19.7934 3.22347 20.0498 3.53583 20.2011 3.90128C20.3525 4.26673 20.3921 4.66886 20.315 5.05683C20.2378 5.44479 20.0473 5.80116 19.7676 6.08086C19.4879 6.36057 19.1315 6.55105 18.7436 6.62822C18.3556 6.70539 17.9535 6.66578 17.588 6.51441C17.2226 6.36303 16.9102 6.10669 16.6904 5.77779C16.4707 5.44889 16.3534 5.06221 16.3534 4.66665C16.3534 4.13621 16.5641 3.62751 16.9392 3.25243C17.3142 2.87736 17.8229 2.66665 18.3534 2.66665ZM4.66671 14C4.27115 14 3.88447 13.8827 3.55557 13.6629C3.22667 13.4432 2.97033 13.1308 2.81895 12.7653C2.66758 12.3999 2.62797 11.9978 2.70514 11.6098C2.78231 11.2218 2.9728 10.8655 3.2525 10.5858C3.53221 10.3061 3.88857 10.1156 4.27653 10.0384C4.6645 9.96124 5.06663 10.0008 5.43208 10.1522C5.79753 10.3036 6.10989 10.5599 6.32965 10.8888C6.54942 11.2177 6.66671 11.6044 6.66671 12C6.66671 12.5304 6.456 13.0391 6.08093 13.4142C5.70585 13.7893 5.19715 14 4.66671 14ZM18.3534 21.3333C17.9578 21.3333 17.5711 21.216 17.2422 20.9963C16.9133 20.7765 16.657 20.4641 16.5056 20.0987C16.3542 19.7332 16.3146 19.3311 16.3918 18.9431C16.469 18.5552 16.6595 18.1988 16.9392 17.9191C17.2189 17.6394 17.5752 17.4489 17.9632 17.3717C18.3512 17.2946 18.7533 17.3342 19.1187 17.4856C19.4842 17.6369 19.7966 17.8933 20.0163 18.2222C20.2361 18.5511 20.3534 18.9378 20.3534 19.3333C20.3534 19.8637 20.1427 20.3725 19.7676 20.7475C19.3925 21.1226 18.8838 21.3333 18.3534 21.3333Z" fill="#969696"/>
</g>
<defs>
<clipPath id="clip0_739_1420">
<rect width="24" height="24" fill="white"/>
</clipPath>
</defs>
</svg>
