<svg width="32" height="32" viewBox="0 0 32 32" fill="none" xmlns="http://www.w3.org/2000/svg">
<path d="M23 11H20V10C20 8.93913 19.5786 7.92172 18.8284 7.17157C18.0783 6.42143 17.0609 6 16 6C14.9391 6 13.9217 6.42143 13.1716 7.17157C12.4214 7.92172 12 8.93913 12 10V11H9C8.73478 11 8.48043 11.1054 8.29289 11.2929C8.10536 11.4804 8 11.7348 8 12V23C8 23.7956 8.31607 24.5587 8.87868 25.1213C9.44129 25.6839 10.2044 26 11 26H21C21.7956 26 22.5587 25.6839 23.1213 25.1213C23.6839 24.5587 24 23.7956 24 23V12C24 11.7348 23.8946 11.4804 23.7071 11.2929C23.5196 11.1054 23.2652 11 23 11ZM14 10C14 9.46957 14.2107 8.96086 14.5858 8.58579C14.9609 8.21071 15.4696 8 16 8C16.5304 8 17.0391 8.21071 17.4142 8.58579C17.7893 8.96086 18 9.46957 18 10V11H14V10ZM22 23C22 23.2652 21.8946 23.5196 21.7071 23.7071C21.5196 23.8946 21.2652 24 21 24H11C10.7348 24 10.4804 23.8946 10.2929 23.7071C10.1054 23.5196 10 23.2652 10 23V13H12V14C12 14.2652 12.1054 14.5196 12.2929 14.7071C12.4804 14.8946 12.7348 15 13 15C13.2652 15 13.5196 14.8946 13.7071 14.7071C13.8946 14.5196 14 14.2652 14 14V13H18V14C18 14.2652 18.1054 14.5196 18.2929 14.7071C18.4804 14.8946 18.7348 15 19 15C19.2652 15 19.5196 14.8946 19.7071 14.7071C19.8946 14.5196 20 14.2652 20 14V13H22V23Z" fill="#C2C2C2"/>
</svg>
