<svg width="40" height="40" viewBox="0 0 40 40" fill="none" xmlns="http://www.w3.org/2000/svg">
<g id="Icon_Web">
<path id="Vector" d="M20 6C17.2311 6 14.5243 6.82109 12.222 8.35942C9.91973 9.89776 8.12532 12.0843 7.06569 14.6424C6.00607 17.2006 5.72882 20.0155 6.26901 22.7313C6.80921 25.447 8.14258 27.9416 10.1005 29.8995C12.0584 31.8574 14.553 33.1908 17.2687 33.731C19.9845 34.2712 22.7994 33.9939 25.3576 32.9343C27.9157 31.8747 30.1022 30.0803 31.6406 27.778C33.1789 25.4757 34 22.7689 34 20C33.9956 16.2883 32.5192 12.7299 29.8947 10.1053C27.2701 7.48075 23.7117 6.00436 20 6ZM31.1959 14.7843H25.681C25.0808 12.295 23.9863 9.95187 22.4624 7.89412C24.3542 8.28289 26.1291 9.10833 27.6454 10.3046C29.1617 11.5009 30.3775 13.0349 31.1959 14.7843ZM32.3529 20C32.3539 21.2089 32.1767 22.4113 31.8273 23.5686H26.02C26.4117 21.2057 26.4117 18.7943 26.02 16.4314H31.8273C32.1767 17.5887 32.3539 18.7911 32.3529 20ZM20 32.3529C19.9658 32.3531 19.9319 32.346 19.9007 32.332C19.8694 32.3181 19.8415 32.2976 19.8188 32.272C18.051 30.3682 16.7526 27.9237 16.0196 25.2157H23.9804C23.2475 27.9237 21.949 30.3682 20.1812 32.272C20.1585 32.2976 20.1306 32.3181 20.0993 32.332C20.0681 32.346 20.0342 32.3531 20 32.3529ZM15.6504 23.5686C15.2277 21.2083 15.2277 18.7917 15.6504 16.4314H24.3496C24.7723 18.7917 24.7723 21.2083 24.3496 23.5686H15.6504ZM7.64706 20C7.64614 18.7911 7.82327 17.5887 8.17275 16.4314H13.98C13.5883 18.7943 13.5883 21.2057 13.98 23.5686H8.17275C7.82327 22.4113 7.64614 21.2089 7.64706 20ZM20 7.64706C20.0342 7.64687 20.0681 7.654 20.0993 7.66796C20.1306 7.68193 20.1585 7.70241 20.1812 7.72804C21.949 9.63176 23.2475 12.0763 23.9804 14.7843H16.0196C16.7526 12.0763 18.051 9.63176 19.8188 7.72804C19.8415 7.70241 19.8694 7.68193 19.9007 7.66796C19.9319 7.654 19.9658 7.64687 20 7.64706ZM17.5377 7.89412C16.0137 9.95187 14.9192 12.295 14.319 14.7843H8.80412C9.62251 13.0349 10.8383 11.5009 12.3546 10.3046C13.8709 9.10833 15.6458 8.28289 17.5377 7.89412ZM8.80412 25.2157H14.319C14.9192 27.705 16.0137 30.0481 17.5377 32.1059C15.6458 31.7171 13.8709 30.8917 12.3546 29.6954C10.8383 28.4991 9.62251 26.9651 8.80412 25.2157ZM22.4624 32.1059C23.9863 30.0481 25.0808 27.705 25.681 25.2157H31.1959C30.3775 26.9651 29.1617 28.4991 27.6454 29.6954C26.1291 30.8917 24.3542 31.7171 22.4624 32.1059Z" fill="#969696"/>
</g>
</svg>
