<svg width="96" height="96" viewBox="0 0 96 96" fill="none" xmlns="http://www.w3.org/2000/svg">
<g id="Icon-Back">
<path id="Vector" d="M82.5 48C82.5 48.3978 82.3419 48.7793 82.0606 49.0606C81.7793 49.3419 81.3978 49.5 81 49.5H18.6225L43.0612 73.9387C43.3427 74.2202 43.5008 74.6019 43.5008 75C43.5008 75.398 43.3427 75.7798 43.0612 76.0612C42.7797 76.3427 42.398 76.5008 42 76.5008C41.6019 76.5008 41.2202 76.3427 40.9387 76.0612L13.9387 49.0612C13.7992 48.9219 13.6886 48.7565 13.6131 48.5744C13.5376 48.3923 13.4988 48.1971 13.4988 48C13.4988 47.8029 13.5376 47.6077 13.6131 47.4256C13.6886 47.2435 13.7992 47.078 13.9387 46.9387L40.9387 19.9387C41.0781 19.7994 41.2435 19.6888 41.4256 19.6134C41.6077 19.538 41.8029 19.4991 42 19.4991C42.197 19.4991 42.3922 19.538 42.5743 19.6134C42.7564 19.6888 42.9218 19.7994 43.0612 19.9387C43.2006 20.0781 43.3111 20.2435 43.3865 20.4256C43.462 20.6077 43.5008 20.8029 43.5008 21C43.5008 21.1971 43.462 21.3922 43.3865 21.5743C43.3111 21.7564 43.2006 21.9219 43.0612 22.0612L18.6225 46.5H81C81.3978 46.5 81.7793 46.658 82.0606 46.9393C82.3419 47.2206 82.5 47.6022 82.5 48Z" fill="black"/>
</g>
</svg>
