<svg width="32" height="32" viewBox="0 0 32 32" fill="none" xmlns="http://www.w3.org/2000/svg">
<g id="Size=L">
<path id="Vector" d="M23.7656 22.6336C23.8399 22.708 23.8988 22.7962 23.9391 22.8933C23.9793 22.9904 24 23.0945 24 23.1996C24 23.3047 23.9793 23.4088 23.9391 23.5059C23.8988 23.603 23.8399 23.6912 23.7656 23.7656C23.6912 23.8399 23.603 23.8988 23.5059 23.9391C23.4088 23.9793 23.3047 24 23.1996 24C23.0945 24 22.9904 23.9793 22.8933 23.9391C22.7962 23.8988 22.708 23.8399 22.6336 23.7656L16 17.1309L9.36637 23.7656C9.21626 23.9157 9.01268 24 8.8004 24C8.58812 24 8.38454 23.9157 8.23443 23.7656C8.08433 23.6155 8 23.4119 8 23.1996C8 22.9873 8.08433 22.7837 8.23443 22.6336L14.8691 16L8.23443 9.36637C8.08433 9.21626 8 9.01268 8 8.8004C8 8.58812 8.08433 8.38454 8.23443 8.23443C8.38454 8.08433 8.58812 8 8.8004 8C9.01268 8 9.21626 8.08433 9.36637 8.23443L16 14.8691L22.6336 8.23443C22.7837 8.08433 22.9873 8 23.1996 8C23.4119 8 23.6155 8.08433 23.7656 8.23443C23.9157 8.38454 24 8.58812 24 8.8004C24 9.01268 23.9157 9.21626 23.7656 9.36637L17.1309 16L23.7656 22.6336Z" fill="#C2C2C2"/>
</g>
</svg>
