<svg width="24" height="24" viewBox="0 0 24 24" fill="none" xmlns="http://www.w3.org/2000/svg">
<g id="Icon_Edit">
<path id="Vector" d="M20.6171 3.51244C20.2889 3.16729 19.8949 2.89131 19.4584 2.70075C19.0219 2.51019 18.5516 2.40891 18.0754 2.40287C17.5991 2.39684 17.1265 2.48616 16.6853 2.66559C16.244 2.84502 15.8432 3.11092 15.5063 3.44764L4.25632 14.6976C3.8631 15.0907 3.59004 15.5877 3.46912 16.1304L2.41672 20.8704C2.39476 20.9689 2.398 21.0714 2.42614 21.1683C2.45429 21.2652 2.50642 21.3535 2.57772 21.4249C2.64903 21.4963 2.73719 21.5486 2.83406 21.5769C2.93094 21.6052 3.03338 21.6086 3.13192 21.5868L7.84432 20.5392C8.40524 20.4144 8.91893 20.1321 9.32512 19.7256L20.5547 8.49604C21.2129 7.83753 21.5878 6.94793 21.5995 6.01693C21.6112 5.08594 21.2586 4.18723 20.6171 3.51244ZM16.3547 4.29604C16.5742 4.07338 16.8356 3.89634 17.1238 3.77514C17.412 3.65394 17.7214 3.59096 18.034 3.58984C18.3467 3.58872 18.6565 3.64948 18.9456 3.76861C19.2346 3.88774 19.4973 4.0629 19.7184 4.28398C19.9395 4.50507 20.1146 4.76772 20.2338 5.05679C20.3529 5.34587 20.4136 5.65566 20.4125 5.96832C20.4114 6.28098 20.3484 6.59033 20.2272 6.87855C20.106 7.16676 19.929 7.42815 19.7063 7.64764L18.9011 8.45284L15.5495 5.10244L16.3547 4.29604ZM14.7011 5.95204L18.0527 9.30244L8.47672 18.8784C8.23186 19.1236 7.92214 19.2939 7.58392 19.3692L3.79192 20.2116L4.64152 16.392C4.71232 16.0716 4.87312 15.7788 5.10472 15.5472L14.7011 5.95204Z" fill="#C2C2C2"/>
</g>
</svg>
