<svg width="24" height="24" viewBox="0 0 24 24" fill="none" xmlns="http://www.w3.org/2000/svg">
<g id="Open=off">
<path id="Vector" d="M2.22008 2.22C2.09325 2.34687 2.0161 2.51499 2.00261 2.69388C1.98913 2.87276 2.04021 3.05055 2.14658 3.195L2.22008 3.2805L6.25508 7.3155C4.28799 8.69389 2.88367 10.7351 2.29958 13.065C2.25658 13.2561 2.29006 13.4565 2.39287 13.6233C2.49568 13.79 2.65966 13.9099 2.84974 13.9573C3.03982 14.0048 3.24091 13.9759 3.41 13.877C3.5791 13.7781 3.70277 13.6169 3.75458 13.428C4.27324 11.3602 5.55086 9.56313 7.33358 8.394L9.14408 10.2045C8.41782 10.9595 8.01667 11.9692 8.02681 13.0167C8.03696 14.0642 8.45759 15.066 9.19834 15.8067C9.93909 16.5475 10.9409 16.9681 11.9884 16.9783C13.0359 16.9884 14.0456 16.5873 14.8006 15.861L20.7196 21.78C20.8534 21.9133 21.0326 21.9912 21.2214 21.9981C21.4101 22.005 21.5946 21.9404 21.7378 21.8173C21.881 21.6941 21.9725 21.5215 21.994 21.3338C22.0154 21.1462 21.9653 20.9573 21.8536 20.805L21.7801 20.7195L15.6676 14.6055V14.604L14.4676 13.4055L11.5981 10.536L8.71958 7.6575L7.58708 6.525L3.28058 2.22C3.13994 2.0794 2.94921 2.00041 2.75033 2.00041C2.55146 2.00041 2.36073 2.0794 2.22008 2.22ZM10.2046 11.265L13.7386 14.8005C13.2665 15.2536 12.6357 15.5036 11.9814 15.4969C11.3272 15.4902 10.7016 15.2273 10.2389 14.7647C9.77624 14.302 9.51336 13.6764 9.50666 13.0222C9.49996 12.3679 9.75149 11.737 10.2046 11.265ZM12.0001 5.5005C10.9996 5.5005 10.0291 5.6475 9.11108 5.925L10.3486 7.161C12.4882 6.73718 14.7089 7.15176 16.5515 8.31901C18.394 9.48626 19.7176 11.3169 20.2486 13.4325C20.3004 13.6214 20.4241 13.7826 20.5932 13.8815C20.7623 13.9804 20.9634 14.0093 21.1534 13.9618C21.3435 13.9144 21.5075 13.7945 21.6103 13.6278C21.7131 13.461 21.7466 13.2606 21.7036 13.0695C21.161 10.9069 19.9115 8.98763 18.1534 7.61633C16.3954 6.24502 14.2297 5.50033 12.0001 5.5005ZM12.1951 9.0105L15.9961 12.81C15.9474 11.8176 15.5313 10.8789 14.8287 10.1763C14.1262 9.4738 13.1874 9.05921 12.1951 9.0105Z" fill="#969696"/>
</g>
</svg>
